HIERARCHY
ROOT mixamorig:Hips
{
	OFFSET 0.000000 103.991501 0.000000
	CHANNELS 6 Xposition Yposition Zposition Xrotation Yrotation Zrotation
	JOINT mixamorig:Spine
	{
		OFFSET 0.000000 10.181602 0.131500
		CHANNELS 6 Xposition Yposition Zposition Xrotation Yrotation Zrotation
		JOINT mixamorig:Spine1
		{
			OFFSET 0.000000 10.083504 -1.000800
			CHANNELS 6 Xposition Yposition Zposition Xrotation Yrotation Zrotation
			JOINT mixamorig:Spine2
			{
				OFFSET 0.000000 9.100006 -1.373400
				CHANNELS 6 Xposition Yposition Zposition Xrotation Yrotation Zrotation
				JOINT mixamorig:Neck
				{
					OFFSET 0.000000 16.671707 -2.516200
					CHANNELS 6 Xposition Yposition Zposition Xrotation Yrotation Zrotation
					JOINT mixamorig:Head
					{
						OFFSET 0.000000 9.617905 1.685000
						CHANNELS 6 Xposition Yposition Zposition Xrotation Yrotation Zrotation
						JOINT mixamorig:HeadTop_End
						{
							OFFSET 0.000000 17.815201 2.585000
							CHANNELS 6 Xposition Yposition Zposition Xrotation Yrotation Zrotation
							End Site
							{
								OFFSET 0.000000 13.794495 0.000000
							}
						}
						JOINT mixamorig:LeftEye
						{
							OFFSET 3.067600 6.409500 9.283600
							CHANNELS 6 Xposition Yposition Zposition Xrotation Yrotation Zrotation
							End Site
							{
								OFFSET 0.000000 13.794495 0.000000
							}
						}
						JOINT mixamorig:RightEye
						{
							OFFSET -3.067600 6.409500 9.283500
							CHANNELS 6 Xposition Yposition Zposition Xrotation Yrotation Zrotation
							End Site
							{
								OFFSET 0.000000 13.794495 0.000000
							}
						}
					}
				}
				JOINT mixamorig:LeftShoulder
				{
					OFFSET 4.570400 10.945999 -2.628000
					CHANNELS 6 Xposition Yposition Zposition Xrotation Yrotation Zrotation
					JOINT mixamorig:LeftArm
					{
						OFFSET 10.592400 -0.524597 -2.232100
						CHANNELS 6 Xposition Yposition Zposition Xrotation Yrotation Zrotation
						JOINT mixamorig:LeftForeArm
						{
							OFFSET 27.841499 0.000000 0.000000
							CHANNELS 6 Xposition Yposition Zposition Xrotation Yrotation Zrotation
							JOINT mixamorig:LeftHand
							{
								OFFSET 28.328800 0.000000 0.000000
								CHANNELS 6 Xposition Yposition Zposition Xrotation Yrotation Zrotation
								JOINT mixamorig:LeftHandThumb1
								{
									OFFSET 2.466103 -1.576218 2.681689
									CHANNELS 6 Xposition Yposition Zposition Xrotation Yrotation Zrotation
									JOINT mixamorig:LeftHandThumb2
									{
										OFFSET 3.229782 -1.864716 1.864716
										CHANNELS 6 Xposition Yposition Zposition Xrotation Yrotation Zrotation
										JOINT mixamorig:LeftHandThumb3
										{
											OFFSET 2.652611 -1.531494 1.531488
											CHANNELS 6 Xposition Yposition Zposition Xrotation Yrotation Zrotation
											JOINT mixamorig:LeftHandThumb4
											{
												OFFSET 1.954605 -1.128494 1.128493
												CHANNELS 6 Xposition Yposition Zposition Xrotation Yrotation Zrotation
												End Site
												{
													OFFSET -0.000404 2.523392 0.000683
												}
											}
										}
									}
								}
								JOINT mixamorig:LeftHandIndex1
								{
									OFFSET 9.109299 -0.518112 2.259867
									CHANNELS 6 Xposition Yposition Zposition Xrotation Yrotation Zrotation
									JOINT mixamorig:LeftHandIndex2
									{
										OFFSET 3.676399 0.000000 0.000000
										CHANNELS 6 Xposition Yposition Zposition Xrotation Yrotation Zrotation
										JOINT mixamorig:LeftHandIndex3
										{
											OFFSET 2.883102 0.000000 0.000000
											CHANNELS 6 Xposition Yposition Zposition Xrotation Yrotation Zrotation
											JOINT mixamorig:LeftHandIndex4
											{
												OFFSET 2.392700 0.000000 0.000000
												CHANNELS 6 Xposition Yposition Zposition Xrotation Yrotation Zrotation
												End Site
												{
													OFFSET 0.000000 2.392700 0.001080
												}
											}
										}
									}
								}
								JOINT mixamorig:LeftHandMiddle1
								{
									OFFSET 9.533401 0.000000 0.000000
									CHANNELS 6 Xposition Yposition Zposition Xrotation Yrotation Zrotation
									JOINT mixamorig:LeftHandMiddle2
									{
										OFFSET 3.698196 0.000000 0.000000
										CHANNELS 6 Xposition Yposition Zposition Xrotation Yrotation Zrotation
										JOINT mixamorig:LeftHandMiddle3
										{
											OFFSET 2.950897 0.000000 0.000000
											CHANNELS 6 Xposition Yposition Zposition Xrotation Yrotation Zrotation
											JOINT mixamorig:LeftHandMiddle4
											{
												OFFSET 2.833900 0.000000 0.000000
												CHANNELS 6 Xposition Yposition Zposition Xrotation Yrotation Zrotation
												End Site
												{
													OFFSET 0.000000 2.833893 0.001278
												}
											}
										}
									}
								}
								JOINT mixamorig:LeftHandRing1
								{
									OFFSET 9.104500 -0.043060 -1.865119
									CHANNELS 6 Xposition Yposition Zposition Xrotation Yrotation Zrotation
									JOINT mixamorig:LeftHandRing2
									{
										OFFSET 3.153999 0.000000 0.000000
										CHANNELS 6 Xposition Yposition Zposition Xrotation Yrotation Zrotation
										JOINT mixamorig:LeftHandRing3
										{
											OFFSET 2.937698 0.000000 0.000000
											CHANNELS 6 Xposition Yposition Zposition Xrotation Yrotation Zrotation
											JOINT mixamorig:LeftHandRing4
											{
												OFFSET 2.647499 0.000000 0.000000
												CHANNELS 6 Xposition Yposition Zposition Xrotation Yrotation Zrotation
												End Site
												{
													OFFSET 0.000000 2.647507 0.001195
												}
											}
										}
									}
								}
								JOINT mixamorig:LeftHandPinky1
								{
									OFFSET 8.077797 -0.486984 -3.806321
									CHANNELS 6 Xposition Yposition Zposition Xrotation Yrotation Zrotation
									JOINT mixamorig:LeftHandPinky2
									{
										OFFSET 3.599998 0.000000 0.000000
										CHANNELS 6 Xposition Yposition Zposition Xrotation Yrotation Zrotation
										JOINT mixamorig:LeftHandPinky3
										{
											OFFSET 2.114197 0.000000 0.000000
											CHANNELS 6 Xposition Yposition Zposition Xrotation Yrotation Zrotation
											JOINT mixamorig:LeftHandPinky4
											{
												OFFSET 1.975700 0.000000 0.000000
												CHANNELS 6 Xposition Yposition Zposition Xrotation Yrotation Zrotation
												End Site
												{
													OFFSET 0.000000 1.975693 0.000892
												}
											}
										}
									}
								}
							}
						}
					}
				}
				JOINT mixamorig:RightShoulder
				{
					OFFSET -4.570000 10.946198 -2.628000
					CHANNELS 6 Xposition Yposition Zposition Xrotation Yrotation Zrotation
					JOINT mixamorig:RightArm
					{
						OFFSET -10.592800 -0.524796 -2.232100
						CHANNELS 6 Xposition Yposition Zposition Xrotation Yrotation Zrotation
						JOINT mixamorig:RightForeArm
						{
							OFFSET -27.841499 0.000000 0.000000
							CHANNELS 6 Xposition Yposition Zposition Xrotation Yrotation Zrotation
							JOINT mixamorig:RightHand
							{
								OFFSET -28.328800 0.000000 0.000000
								CHANNELS 6 Xposition Yposition Zposition Xrotation Yrotation Zrotation
								JOINT mixamorig:RightHandPinky1
								{
									OFFSET -8.076698 -0.486725 -3.806227
									CHANNELS 6 Xposition Yposition Zposition Xrotation Yrotation Zrotation
									JOINT mixamorig:RightHandPinky2
									{
										OFFSET -3.599998 0.000000 0.000000
										CHANNELS 6 Xposition Yposition Zposition Xrotation Yrotation Zrotation
										JOINT mixamorig:RightHandPinky3
										{
											OFFSET -2.114197 0.000000 0.000000
											CHANNELS 6 Xposition Yposition Zposition Xrotation Yrotation Zrotation
											JOINT mixamorig:RightHandPinky4
											{
												OFFSET -1.975700 0.000000 0.000000
												CHANNELS 6 Xposition Yposition Zposition Xrotation Yrotation Zrotation
												End Site
												{
													OFFSET 0.000000 1.975693 0.000919
												}
											}
										}
									}
								}
								JOINT mixamorig:RightHandRing1
								{
									OFFSET -9.103600 -0.043030 -1.865120
									CHANNELS 6 Xposition Yposition Zposition Xrotation Yrotation Zrotation
									JOINT mixamorig:RightHandRing2
									{
										OFFSET -3.153999 0.000000 0.000000
										CHANNELS 6 Xposition Yposition Zposition Xrotation Yrotation Zrotation
										JOINT mixamorig:RightHandRing3
										{
											OFFSET -2.937698 0.000000 0.000000
											CHANNELS 6 Xposition Yposition Zposition Xrotation Yrotation Zrotation
											JOINT mixamorig:RightHandRing4
											{
												OFFSET -2.647499 0.000000 0.000000
												CHANNELS 6 Xposition Yposition Zposition Xrotation Yrotation Zrotation
												End Site
												{
													OFFSET 0.000000 2.647507 0.001231
												}
											}
										}
									}
								}
								JOINT mixamorig:RightHandMiddle1
								{
									OFFSET -9.532501 0.000000 0.000000
									CHANNELS 6 Xposition Yposition Zposition Xrotation Yrotation Zrotation
									JOINT mixamorig:RightHandMiddle2
									{
										OFFSET -3.698196 0.000000 0.000000
										CHANNELS 6 Xposition Yposition Zposition Xrotation Yrotation Zrotation
										JOINT mixamorig:RightHandMiddle3
										{
											OFFSET -2.950897 0.000000 0.000000
											CHANNELS 6 Xposition Yposition Zposition Xrotation Yrotation Zrotation
											JOINT mixamorig:RightHandMiddle4
											{
												OFFSET -2.833900 0.000000 0.000000
												CHANNELS 6 Xposition Yposition Zposition Xrotation Yrotation Zrotation
												End Site
												{
													OFFSET 0.000000 2.833893 0.001318
												}
											}
										}
									}
								}
								JOINT mixamorig:RightHandIndex1
								{
									OFFSET -9.108299 -0.517853 2.259859
									CHANNELS 6 Xposition Yposition Zposition Xrotation Yrotation Zrotation
									JOINT mixamorig:RightHandIndex2
									{
										OFFSET -3.676399 0.000000 0.000000
										CHANNELS 6 Xposition Yposition Zposition Xrotation Yrotation Zrotation
										JOINT mixamorig:RightHandIndex3
										{
											OFFSET -2.883102 0.000000 0.000000
											CHANNELS 6 Xposition Yposition Zposition Xrotation Yrotation Zrotation
											JOINT mixamorig:RightHandIndex4
											{
												OFFSET -2.392700 0.000000 0.000000
												CHANNELS 6 Xposition Yposition Zposition Xrotation Yrotation Zrotation
												End Site
												{
													OFFSET 0.000000 2.392700 0.001113
												}
											}
										}
									}
								}
								JOINT mixamorig:RightHandThumb1
								{
									OFFSET -2.464798 -1.573944 2.681868
									CHANNELS 6 Xposition Yposition Zposition Xrotation Yrotation Zrotation
									JOINT mixamorig:RightHandThumb2
									{
										OFFSET -3.229782 -1.864716 1.864716
										CHANNELS 6 Xposition Yposition Zposition Xrotation Yrotation Zrotation
										JOINT mixamorig:RightHandThumb3
										{
											OFFSET -2.652542 -1.531448 1.531448
											CHANNELS 6 Xposition Yposition Zposition Xrotation Yrotation Zrotation
											JOINT mixamorig:RightHandThumb4
											{
												OFFSET -1.954605 -1.128494 1.128493
												CHANNELS 6 Xposition Yposition Zposition Xrotation Yrotation Zrotation
												End Site
												{
													OFFSET 0.000412 2.523392 0.000704
												}
											}
										}
									}
								}
							}
						}
					}
				}
			}
		}
	}
	JOINT mixamorig:LeftUpLeg
	{
		OFFSET 8.207800 -6.751701 -1.599600
		CHANNELS 6 Xposition Yposition Zposition Xrotation Yrotation Zrotation
		JOINT mixamorig:LeftLeg
		{
			OFFSET 0.000000 -44.370499 0.284600
			CHANNELS 6 Xposition Yposition Zposition Xrotation Yrotation Zrotation
			JOINT mixamorig:LeftFoot
			{
				OFFSET 0.000000 -44.427898 -2.982200
				CHANNELS 6 Xposition Yposition Zposition Xrotation Yrotation Zrotation
				JOINT mixamorig:LeftToeBase
				{
					OFFSET 0.000000 -8.728700 10.710600
					CHANNELS 6 Xposition Yposition Zposition Xrotation Yrotation Zrotation
					JOINT mixamorig:LeftToe_End
					{
						OFFSET 0.000000 -0.000700 9.278099
						CHANNELS 6 Xposition Yposition Zposition Xrotation Yrotation Zrotation
						End Site
						{
							OFFSET 0.000000 9.278100 0.000000
						}
					}
				}
			}
		}
	}
	JOINT mixamorig:RightUpLeg
	{
		OFFSET -8.207800 -6.751701 -1.599600
		CHANNELS 6 Xposition Yposition Zposition Xrotation Yrotation Zrotation
		JOINT mixamorig:RightLeg
		{
			OFFSET 0.000000 -44.370499 0.286200
			CHANNELS 6 Xposition Yposition Zposition Xrotation Yrotation Zrotation
			JOINT mixamorig:RightFoot
			{
				OFFSET 0.000000 -44.427700 -2.983800
				CHANNELS 6 Xposition Yposition Zposition Xrotation Yrotation Zrotation
				JOINT mixamorig:RightToeBase
				{
					OFFSET 0.000000 -8.728700 10.710600
					CHANNELS 6 Xposition Yposition Zposition Xrotation Yrotation Zrotation
					JOINT mixamorig:RightToe_End
					{
						OFFSET 0.000000 -0.000700 9.278100
						CHANNELS 6 Xposition Yposition Zposition Xrotation Yrotation Zrotation
						End Site
						{
							OFFSET 0.000000 9.278100 0.000000
						}
					}
				}
			}
		}
	}
}
MOTION
Frames: 3
Frame Time: 0.016667
-0.400514 101.268860 1.732068 -1.192389 -10.429213 0.715452 -0.000000 10.181602 0.131500 1.992549 1.925243 1.897618 0.000001 10.083507 -1.000800 4.110857 3.976792 -1.098657 0.000000 9.100024 -1.373401 4.070811 4.016885 -1.101828 0.000000 16.671724 -2.516202 2.859945 0.159098 -1.447173 0.000000 9.617921 1.685001 -18.473951 -0.884116 1.820629 0.000000 17.815201 2.585002 0.000000 0.000000 -0.000000 3.067600 6.409485 9.283599 0.000000 0.000000 -0.000000 -3.067600 6.409500 9.283500 0.000000 0.000000 -0.000000 4.570401 10.945996 -2.628000 0.382113 5.785125 -10.783772 10.592410 -0.524573 -2.232098 -18.969223 -19.587623 -70.579849 27.841486 -0.000004 0.000001 0.000003 -11.235847 -0.000006 28.328785 0.000012 -0.000001 46.064018 -6.304568 -6.349602 2.466107 -1.576218 2.681687 -1.540049 3.690195 6.142359 3.229805 -1.864714 1.864713 3.939051 7.948692 0.746795 2.652616 -1.531475 1.531485 -0.579463 1.575000 2.538723 1.954612 -1.128485 1.128493 0.000003 0.000000 0.000003 9.109300 -0.518113 2.259867 -0.000004 0.000000 -0.000003 3.676388 -0.000014 0.000002 0.000001 -0.000000 0.000001 2.883103 -0.000017 0.000001 -0.000002 -0.000000 -0.000000 2.392686 -0.000001 0.000000 0.000001 -0.000000 -0.000000 9.533410 -0.000014 -0.000002 0.000001 -0.001930 0.015990 3.698189 -0.000010 -0.000002 -0.000004 0.001927 -0.015987 2.950911 -0.000004 -0.000000 -0.000000 0.000001 -0.000002 2.833911 -0.000017 -0.000001 -0.000002 -0.000000 -0.000001 9.104510 -0.043090 -1.865122 -0.000004 0.000000 -0.000001 3.154007 -0.000016 -0.000003 0.000001 -0.000002 -0.000021 2.937702 -0.000013 -0.000002 -0.000005 -0.000000 -0.000001 2.647486 0.000001 0.000001 0.000001 0.000001 -0.000001 8.077797 -0.486987 -3.806321 -0.018092 4.054251 0.511063 3.599994 -0.000005 -0.000001 -0.018092 -4.054245 -0.511052 2.114188 0.000003 -0.000001 0.000004 0.000000 -0.000002 1.975695 0.000015 0.000000 0.000004 0.000000 -0.000001 -4.569998 10.946211 -2.628000 -0.255384 -6.944544 11.822465 -10.592805 -0.524807 -2.232101 -18.532795 8.011243 64.364998 -27.841475 0.000002 0.000001 0.000006 20.347878 -0.000004 -28.328806 0.000002 0.000008 51.460162 -0.191265 21.480084 -8.076692 -0.486713 -3.806227 0.000002 0.000001 0.000003 -3.599999 -0.000001 -0.000002 -0.000004 -0.000000 0.000010 -2.114195 -0.000015 0.000005 -0.000000 0.000000 -0.000001 -1.975709 0.000001 0.000001 0.000002 -0.000001 0.000000 -9.103594 -0.043030 -1.865121 0.000003 -0.000000 0.000001 -3.153999 -0.000008 0.000001 0.000000 -0.000009 -0.000003 -2.937706 0.000016 0.000003 -0.000002 0.000000 -0.000000 -2.647499 0.000002 0.000002 -0.000002 0.000000 -0.000000 -9.532504 -0.000000 -0.000002 0.000003 -0.000000 0.000001 -3.698208 0.000009 0.000002 -0.000000 -0.000002 0.000014 -2.950885 -0.000020 0.000001 0.000002 -0.000008 -0.000008 -2.833885 -0.000031 0.000000 0.000001 0.000000 -0.000000 -9.108301 -0.517853 2.259860 0.000002 -0.000001 0.000001 -3.676414 0.000011 0.000003 0.000002 -0.000002 0.000015 -2.883102 0.000002 0.000002 0.000004 -0.000001 -0.000000 -2.392693 -0.000012 0.000005 0.000000 -0.000000 0.000000 -2.464797 -1.573937 2.681870 -1.849249 -3.581800 -6.586148 -3.229796 -1.864700 1.864722 4.637217 -8.634116 -0.225400 -2.652534 -1.531454 1.531450 -1.273761 0.137307 -2.094878 -1.954603 -1.128507 1.128494 0.000000 -0.000001 -0.000001 8.207799 -6.751695 -1.599600 -8.604607 5.470686 7.455659 -0.000001 -44.370506 0.284600 21.548716 0.041360 1.519941 0.000000 -44.427898 -2.982199 -11.532056 0.944332 -6.701279 0.000000 -8.728700 10.710601 -0.297073 0.000001 -0.000000 -0.000003 -0.000700 9.278100 -0.000000 0.000000 0.000000 -8.207800 -6.751698 -1.599601 -14.259177 -7.444022 -9.411331 0.000001 -44.370499 0.286204 23.749041 0.428740 -1.144220 -0.000002 -44.427700 -2.983803 -8.475277 -0.603573 7.251354 -0.000003 -8.728699 10.710601 -0.003693 0.000010 -0.000000 0.000000 -0.000700 9.278100 -0.000000 0.000000 -0.000000 
-0.394579 101.264389 1.709507 -1.210262 -10.442217 0.709073 -0.000000 10.181600 0.131500 1.997151 1.922548 1.894516 -0.000000 10.083485 -1.000800 4.119507 3.971519 -1.093892 0.000001 9.100018 -1.373400 4.079609 4.011607 -1.097055 0.000001 16.671728 -2.516201 2.863486 0.161999 -1.443415 -0.000000 9.617934 1.684996 -18.486149 -0.856225 1.798974 0.000000 17.815186 2.585000 0.000000 0.000000 -0.000000 3.067601 6.409485 9.283599 0.000000 0.000000 -0.000000 -3.067600 6.409470 9.283501 0.000000 0.000000 -0.000000 4.570402 10.946015 -2.628001 0.381826 5.783878 -10.776956 10.592405 -0.524579 -2.232098 -18.958056 -19.629139 -70.578626 27.841494 0.000000 -0.000001 0.000006 -11.270177 0.000020 28.328787 0.000000 -0.000002 45.999401 -6.246987 -6.477731 2.466100 -1.576232 2.681692 -1.540045 3.690195 6.142355 3.229798 -1.864712 1.864715 3.939052 7.948697 0.746801 2.652595 -1.531487 1.531489 -0.579472 1.575003 2.538709 1.954601 -1.128479 1.128491 -0.000001 0.000000 0.000002 9.109299 -0.518115 2.259869 0.000002 -0.000001 -0.000003 3.676392 0.000002 -0.000002 0.000003 -0.000002 0.000003 2.883103 -0.000001 -0.000001 -0.000001 0.000000 -0.000000 2.392700 -0.000001 -0.000000 -0.000001 0.000000 -0.000000 9.533396 -0.000001 0.000003 0.000006 -0.001930 0.015989 3.698187 -0.000020 -0.000003 -0.000005 0.001927 -0.015986 2.950902 -0.000016 -0.000000 0.000001 -0.000000 0.000001 2.833898 0.000017 -0.000002 -0.000001 -0.000000 0.000001 9.104503 -0.043063 -1.865116 -0.000000 -0.000001 -0.000001 3.153993 0.000004 0.000002 0.000002 -0.000002 -0.000019 2.937694 0.000000 -0.000001 -0.000001 -0.000001 -0.000001 2.647493 -0.000015 0.000001 -0.000002 -0.000000 -0.000001 8.077782 -0.486987 -3.806320 -0.018084 4.054250 0.511066 3.599997 -0.000003 -0.000001 -0.018091 -4.054246 -0.511053 2.114201 -0.000016 0.000002 -0.000002 -0.000001 0.000001 1.975694 0.000014 0.000001 0.000002 0.000000 -0.000000 -4.569997 10.946211 -2.628000 -0.256101 -6.944827 11.822387 -10.592794 -0.524796 -2.232101 -18.460837 8.080903 64.331277 -27.841513 -0.000004 -0.000003 0.000004 20.439239 0.000003 -28.328808 -0.000001 0.000010 51.317018 -0.203705 21.573441 -8.076707 -0.486711 -3.806226 0.000004 0.000001 0.000003 -3.600000 -0.000001 0.000000 -0.000002 -0.000000 0.000010 -2.114197 -0.000016 0.000000 0.000001 -0.000001 0.000000 -1.975710 -0.000001 -0.000000 0.000001 0.000000 0.000001 -9.103601 -0.043027 -1.865122 0.000003 0.000000 0.000001 -3.154000 -0.000008 0.000005 -0.000001 -0.000008 -0.000002 -2.937689 0.000000 0.000000 -0.000003 -0.000001 -0.000001 -2.647495 0.000000 0.000002 -0.000003 0.000000 -0.000002 -9.532502 0.000003 -0.000000 0.000002 -0.000000 0.000000 -3.698197 0.000010 0.000001 0.000001 -0.000003 0.000016 -2.950892 -0.000005 -0.000001 0.000004 -0.000007 -0.000008 -2.833909 -0.000015 0.000002 0.000003 -0.000000 0.000000 -9.108301 -0.517835 2.259861 0.000001 -0.000000 0.000001 -3.676398 -0.000003 0.000003 0.000000 -0.000002 0.000015 -2.883110 0.000001 0.000002 0.000003 0.000000 -0.000000 -2.392701 0.000001 -0.000002 0.000003 -0.000001 0.000000 -2.464802 -1.573933 2.681871 -1.849249 -3.581800 -6.586145 -3.229787 -1.864699 1.864719 4.637219 -8.634118 -0.225416 -2.652528 -1.531451 1.531450 -1.273766 0.137323 -2.094864 -1.954603 -1.128510 1.128495 0.000004 -0.000000 -0.000001 8.207800 -6.751697 -1.599600 -8.609572 5.476800 7.464487 0.000001 -44.370499 0.284602 21.572458 0.037146 1.514305 0.000000 -44.427895 -2.982198 -11.533615 0.946603 -6.722149 0.000001 -8.728702 10.710600 -0.290480 0.000000 0.000002 -0.000000 -0.000700 9.278099 0.000000 -0.000000 -0.000000 -8.207801 -6.751704 -1.599601 -14.271894 -7.442098 -9.411915 0.000005 -44.370502 0.286205 23.772617 0.430614 -1.139111 -0.000002 -44.427700 -2.983801 -8.468415 -0.603356 7.244919 0.000002 -8.728700 10.710599 -0.003647 -0.000003 0.000000 -0.000000 -0.000700 9.278100 0.000000 -0.000002 0.000000 
-0.383930 101.261108 1.688583 -1.242400 -10.469532 0.704865 -0.000000 10.181591 0.131500 2.004366 1.920655 1.896953 -0.000000 10.083508 -1.000800 4.133705 3.969197 -1.091886 0.000001 9.100021 -1.373401 4.093808 4.009456 -1.095054 0.000000 16.671686 -2.516199 2.865372 0.160073 -1.432220 -0.000000 9.617891 1.685001 -18.482410 -0.839991 1.756350 0.000000 17.815186 2.585000 -0.000000 -0.000000 -0.000000 3.067600 6.409500 9.283602 -0.000000 -0.000000 -0.000000 -3.067600 6.409500 9.283500 -0.000000 -0.000000 -0.000000 4.570401 10.945982 -2.628000 0.381621 5.783021 -10.772074 10.592412 -0.524587 -2.232099 -18.940905 -19.681871 -70.570396 27.841528 -0.000003 0.000002 -0.000000 -11.309729 -0.000006 28.328810 0.000018 -0.000008 45.905582 -6.206744 -6.587615 2.466094 -1.576203 2.681690 -1.540047 3.690195 6.142353 3.229784 -1.864723 1.864714 3.939053 7.948699 0.746819 2.652617 -1.531482 1.531490 -0.579464 1.574998 2.538710 1.954595 -1.128492 1.128494 -0.000003 0.000001 0.000001 9.109288 -0.518112 2.259866 -0.000000 -0.000000 -0.000002 3.676386 0.000002 0.000004 -0.000002 -0.000000 -0.000001 2.883115 0.000000 -0.000000 -0.000001 -0.000001 0.000001 2.392697 0.000000 0.000001 -0.000001 -0.000001 0.000001 9.533394 -0.000015 0.000001 0.000004 -0.001930 0.015990 3.698196 -0.000022 0.000002 -0.000002 0.001929 -0.015987 2.950911 -0.000015 0.000001 0.000002 -0.000001 0.000001 2.833914 -0.000014 -0.000000 0.000004 0.000000 0.000001 9.104491 -0.043088 -1.865118 -0.000000 0.000000 0.000000 3.153987 -0.000016 -0.000000 -0.000003 -0.000001 -0.000020 2.937702 -0.000004 0.000000 -0.000001 0.000000 -0.000002 2.647502 -0.000004 0.000001 -0.000001 0.000001 -0.000001 8.077780 -0.486988 -3.806322 -0.018088 4.054251 0.511064 3.599998 -0.000004 0.000003 -0.018092 -4.054246 -0.511054 2.114197 0.000001 0.000000 -0.000003 0.000000 0.000000 1.975706 0.000001 0.000003 0.000003 0.000000 -0.000002 -4.569998 10.946166 -2.627999 -0.256260 -6.944706 11.822377 -10.592800 -0.524814 -2.232098 -18.424058 8.125097 64.321333 -27.841515 0.000002 -0.000002 -0.000002 20.526344 0.000018 -28.328808 0.000001 0.000010 51.246076 -0.349841 21.640496 -8.076707 -0.486725 -3.806224 -0.000000 0.000001 0.000003 -3.599999 -0.000013 0.000000 0.000001 -0.000000 0.000010 -2.114204 -0.000014 0.000002 -0.000004 0.000000 -0.000000 -1.975707 0.000000 -0.000002 -0.000002 0.000000 -0.000000 -9.103600 -0.043040 -1.865121 0.000003 0.000000 0.000000 -3.153998 -0.000007 0.000003 0.000000 -0.000008 -0.000003 -2.937722 0.000001 -0.000002 0.000004 0.000000 0.000000 -2.647492 0.000002 0.000004 0.000000 -0.000001 0.000000 -9.532501 0.000004 0.000001 0.000002 0.000000 -0.000000 -3.698194 -0.000004 0.000000 0.000004 -0.000003 0.000014 -2.950886 -0.000002 0.000001 0.000003 -0.000008 -0.000007 -2.833905 -0.000031 0.000002 -0.000000 -0.000001 0.000002 -9.108307 -0.517849 2.259861 0.000000 -0.000000 -0.000000 -3.676409 -0.000001 0.000002 0.000000 -0.000002 0.000013 -2.883116 0.000001 0.000001 -0.000001 0.000000 -0.000001 -2.392691 0.000002 0.000001 -0.000001 0.000001 -0.000000 -2.464812 -1.573962 2.681870 -1.849251 -3.581801 -6.586146 -3.229777 -1.864691 1.864714 4.637196 -8.634126 -0.225420 -2.652539 -1.531457 1.531447 -1.273742 0.137322 -2.094857 -1.954600 -1.128496 1.128492 -0.000001 -0.000001 0.000001 8.207800 -6.751695 -1.599600 -8.592757 5.481617 7.462321 -0.000001 -44.370499 0.284599 21.593156 0.034834 1.509339 0.000002 -44.427895 -2.982198 -11.539523 0.948063 -6.732796 0.000000 -8.728701 10.710601 -0.286845 0.000000 0.000002 0.000000 -0.000700 9.278099 0.000000 0.000000 0.000000 -8.207800 -6.751700 -1.599601 -14.279747 -7.478328 -9.453208 -0.000001 -44.370491 0.286200 23.792841 0.439129 -1.093204 -0.000001 -44.427700 -2.983800 -8.451889 -0.600359 7.220047 -0.000003 -8.728699 10.710601 -0.003594 -0.000002 0.000002 -0.000003 -0.000700 9.278099 0.000000 0.000000 -0.000000 
